<svg height="63" viewBox="0 0 473 63" width="473" xmlns="http://www.w3.org/2000/svg" xmlns:xlink="http://www.w3.org/1999/xlink"><mask id="a" fill="#fff"><path d="m.41885714.41891429c.55857143-.55855715 1.46142857-.55855715 2.02 0l7.56114286 7.5612 7.5611429-7.5612c.5585714-.55855715 1.4614285-.55855715 2.02 0 .5584285.55855714.5584285 1.46138571 0 2.01994285l-8.5711429 8.57115716c-.2785714.2785571-.6442857.4185571-1.01.4185571-.36571429 0-.73142857-.14-1.01-.4185571l-8.57114286-8.57115716c-.55842857-.55855714-.55842857-1.46138571 0-2.01994285z" fill="#fff" fill-rule="evenodd"/></mask><g fill="none" fill-rule="evenodd"><path d="m6 0h460.519704c3.313709 0 6 2.6862915 6 6v56.7142857h-472.519704v-56.7142857c0-3.3137085 2.6862915-6 6-6z" fill="#00a300"/><g fill="#fff"><path d="m19 18.7130435v27.8086956h17.0117913v-4.1021391h-12.874v-19.6037043h43.0635478v19.6037043h-24.6727304l-4.1377913 4.1021391h32.948313v-27.8086956z" fill-rule="nonzero"/><path d="m53.226087 37.2521739v-9.9826087h7.5582608v2.0450087h-4.9378261v1.8753044h4.6675826v1.9316347h-4.6675826v2.0721044h5.2230435v2.0585565zm-25.6695653 0v-9.9826087h2.7502087v7.8819826h4.3802261v2.1006261zm9.9826087 0h2.8521739v-9.9826087h-2.8521739zm10.4332522 0h-2.3979652l-3.7570261-9.9826087h2.6924522l2.2988522 7.0783826h.0563304l2.2853043-7.0783826h2.6496696z" fill-rule="nonzero"/><path d="m79.075718 35.5939704h2.2490361c1.2943265 0 3.1453613-.2532735 3.1453613-2.0640148 0-1.4398765-1.0155611-1.9472459-3.045861-1.9472459h-2.3485364zm0-6.1131021h2.2284782c1.6734144 0 2.568095-.6825229 2.568095-1.8691258 0-1.2268965-.8946806-1.713708-2.7860089-1.713708h-2.0113866v3.5828338zm-2.5080658-5.6081997h5.4930754c2.1298001 0 4.3204518.9547096 4.3204518 3.4660647 0 1.5574678-.9950032 2.5894752-2.4488591 3.0179022v.0394712c1.7720924.233538 3.045861 1.4012276 3.045861 3.2514402 0 2.9981665-2.6675953 4.0104384-5.3351906 4.0104384h-5.0753385v-13.7844944zm17.3985762 12.1102576c1.8913283 0 2.7679179-1.5772034 2.7679179-3.0368155 0-1.4604344-.8765896-2.9981666-2.7679179-2.9981666-1.8913284 0-2.7670957 1.5377322-2.7670957 2.9981666 0 1.4596121.8757673 3.0368155 2.7670957 3.0368155m0-7.9435791c2.8863315 0 5.196219 1.9669815 5.196219 4.9067636s-2.3098875 4.9832391-5.196219 4.9832391c-2.8863316 0-5.1953968-2.043457-5.1953968-4.9832391s2.3090652-4.9059412 5.1953968-4.9059412m12.1447946 7.943579c1.890506 0 2.766274-1.5780257 2.766274-3.0376378 0-1.4604344-.875768-2.9981666-2.766274-2.9981666-1.891328 0-2.767918 1.5377322-2.767918 2.9981666 0 1.4596121.87659 3.0368155 2.767918 3.0368155m0-7.9435791c2.886332 0 5.195397 1.9669815 5.195397 4.9067636s-2.309065 4.9832391-5.195397 4.9832391c-2.886331 0-5.197041-2.043457-5.197041-4.9832391s2.31071-4.9059412 5.197041-4.9059412m7.544756-5.1008304h2.389652v9.3061578h.059207l3.623127-3.9331406h3.065597l-4.141187 4.225063 4.399394 5.1197437h-3.164274l-3.782657-4.7891724h-.059207v4.7891724h-2.389652zm10.810997 0h2.38883v9.3061578h.059207l3.623127-3.9331406h3.065597l-4.140365 4.225063 4.399394 5.1197437h-3.165096l-3.782657-4.7891724h-.059207v4.7891724h-2.38883zm17.140369 9.1112688c0-1.2071609-.696502-2.2580816-2.249036-2.2580816-1.413563 0-2.54836.9538873-2.64786 2.2580816zm2.369094 1.6742367h-7.26599c.0995 1.3239299 1.333798 2.2975528 2.726802 2.2975528 1.194826 0 1.991651-.4678982 2.528624-1.2071609l1.592827 1.2458098c-.935796 1.2458098-2.289329 1.8691258-4.100893 1.8691258-2.946361 0-5.13619-1.8502125-5.13619-4.887028 0-3.0170799 2.170094-5.0029746 5.056425-5.0029746 2.667596 0 4.618953 1.6939723 4.618953 5.0621814 0 .2138023 0 .4086914-.020558.6224937zm9.058641-1.6742367c0-1.2071609-.696503-2.2580816-2.249036-2.2580816-1.413563 0-2.54836.9538873-2.64786 2.2580816zm2.369094 1.6742367h-7.26599c.0995 1.3239299 1.333798 2.2975528 2.726802 2.2975528 1.194826 0 1.990829-.4678982 2.528624-1.2071609l1.592827 1.2458098c-.935796 1.2458098-2.290152 1.8691258-4.100893 1.8691258-2.946361 0-5.13619-1.8502125-5.13619-4.887028 0-3.0170799 2.170094-5.0029746 5.055603-5.0029746 2.668417 0 4.618953 1.6939723 4.618953 5.0621814 0 .2138023 0 .4086914-.019736.6224937zm7.446077-3.7769005c-1.751534 0-2.807389 1.5772034-2.807389 3.0376378 0 1.4596121 1.055033 2.9973443 2.807389 2.9973443 1.851858 0 2.746538-1.5772034 2.746538-3.0376378 0-1.4596121-.89468-2.9973443-2.746538-2.9973443zm.537796-1.9077746c2.726802 0 4.637866 2.1413126 4.637866 4.9051189 0 2.7259798-1.791828 4.9840614-4.697896 4.9840614-1.333797 0-2.548359-.5838449-3.165919-1.5179966h-.039471v5.9190354h-2.388008v-14.0180323h2.288508v1.3041942h.060029c.476944-.7392627 1.552534-1.576381 3.304891-1.576381zm27.990015 0c1.334619 0 2.588652.5443736 3.285155 1.6742367h.040293v-1.4020499h2.269594v8.5085106c0 3.3682091-1.672592 5.5095217-5.394397 5.5095217-1.554179 0-3.504714-.5451959-4.739011-1.5377322l1.373269-1.8115636c.910098.8438503 2.103273 1.3161914 3.344362 1.3239298 2.309887 0 3.026125-1.3617564 3.026125-3.2127912v-.6808782h-.039471c-.696503.9152385-1.811564 1.4012276-3.124804 1.4012276-2.867418 0-4.718453-2.2186104-4.718453-4.8664701 0-2.7062441 1.791828-4.9059412 4.677338-4.9059412zm-10.431087-.0008224c2.48833 0 3.522804 1.8699482 3.522804 3.7769005v5.8409154h-2.388007v-5.1781281c0-1.1101275-.25903-2.4916196-1.792651-2.4916196-1.513062 0-2.228478 1.2844587-2.228478 2.5310908v5.1394792h-2.389652v-9.345629h2.269594v1.4990833h.040293c.417737-.9341518 1.552534-1.7720925 2.966097-1.7720925zm-8.182051.2730092v9.3448067h-2.38883v-9.3448067zm19.111461 1.6355878c-1.731798 0-2.746537 1.3239299-2.746537 2.9792533-.000823 1.4785254 1.014739 2.9586954 2.726802 2.9586954 1.77127 0 2.84686-1.4012276 2.84686-2.9586954 0-1.6166745-1.095326-2.9792533-2.827125-2.9792533zm-20.326023-6.2109578c.875767 0 1.553356.6035804 1.553356 1.4020499 0 .7976472-.677589 1.40205-1.553356 1.40205-.874945 0-1.513063-.6627873-1.513063-1.40205 0-.740085.638118-1.4020499 1.513063-1.4020499z" fill-rule="nonzero"/><path d="m0 11.4285714h20v-11.4285714h-20z" fill-rule="evenodd" mask="url(#a)" transform="translate(433 28)"/></g></g></svg>