<?xml version="1.0" encoding="UTF-8"?><svg height="42" viewBox="0 0 65 42" width="65" xmlns="http://www.w3.org/2000/svg"><g fill="#babec5" fill-rule="evenodd" opacity=".5" transform="matrix(1 0 0 -1 0 41.846956)"><path d="m18.2417391 27.2086957c2.0354783-.6566957 3.9526957-1.7808696 5.5693913-3.3975653 5.4469566-5.4469565 5.4469566-14.27895649 0-19.72591301-5.4469565-5.44695652-14.27895649-5.44695652-19.72591301 0-5.44695652 5.44695652-5.44695652 14.27895651 0 19.72591301l16.53008691 16.5286957c.7429566.7443478 1.7154783 1.1158261 2.6893914 1.1158261.973913 0 1.947826-.3714783 2.6893913-1.1158261 1.4873043-1.4845218 1.4873043-3.8914783 0-5.3787826z"/><path d="m54.4156522 27.2086957c2.0354782-.6566957 3.9526956-1.7808696 5.5693913-3.3975653 5.4469565-5.4469565 5.4469565-14.27895649 0-19.72591301-5.4469565-5.44695652-14.2789565-5.44695652-19.7259131 0-5.4469565 5.44695652-5.4469565 14.27895651 0 19.72591301l16.530087 16.5286957c.7429565.7443478 1.7154783 1.1158261 2.6893913 1.1158261s1.9478261-.3714783 2.6893913-1.1158261c1.4873043-1.4845218 1.4873043-3.8914783 0-5.3787826z"/></g></svg>